# xmcd CD database file
#
# Track frame offsets:
#	150
#	14787
#	31985
#	51256
#	65706
#
# Disc length: 1036 seconds
#
# Revision: 1
# Processed by: cddbd v1.5PL3 Copyright (c) Steve Scherf et al.
# Submitted via: CDex 1.51
#
DISCID=45040a05
DTITLE=The Ruedrich Trio - Ethanol Powered Daydream
DYEAR=2004
DGENRE=Blues
TTITLE0=Ruedrich
TTITLE1=Triple Bock
TTITLE2=The One Shy of Joe Blues
TTITLE3=Boobsicle
TTITLE4=Helicopter Fish
EXTD=YEAR: 2004
EXTT0=
EXTT1=
EXTT2=
EXTT3=
EXTT4=
PLAYORDER=
